<mxfile host="app.diagrams.net" modified="2021-05-07T00:22:19.688Z" agent="5.0 (Windows NT 10.0; Win64; x64) AppleWebKit/537.36 (KHTML, like Gecko) Chrome/90.0.4430.93 Safari/537.36" etag="Fw2DkqxVPMgSiO_fYCix" version="14.6.10" type="github">
  <diagram id="g4kuSAQGsr1L1CeNoXxc" name="Page-1">
    <mxGraphModel dx="1888" dy="548" grid="1" gridSize="10" guides="1" tooltips="1" connect="1" arrows="1" fold="1" page="1" pageScale="1" pageWidth="850" pageHeight="1100" math="0" shadow="0">
      <root>
        <mxCell id="0" />
        <mxCell id="1" parent="0" />
        <mxCell id="msIF1JABwLvq9Jov6W6y-8" value="&lt;font style=&quot;font-size: 14px ; line-height: 140%&quot;&gt;Components&lt;/font&gt;" style="rounded=1;whiteSpace=wrap;html=1;fillColor=#fff2cc;strokeColor=#d6b656;" vertex="1" parent="1">
          <mxGeometry x="-20" y="250" width="860" height="390" as="geometry" />
        </mxCell>
        <mxCell id="msIF1JABwLvq9Jov6W6y-1" value="&lt;font style=&quot;font-size: 31px&quot;&gt;Root&lt;/font&gt;" style="ellipse;whiteSpace=wrap;html=1;fillColor=#fad9d5;strokeColor=#ae4132;" vertex="1" parent="1">
          <mxGeometry x="20" y="70" width="780" height="110" as="geometry" />
        </mxCell>
        <mxCell id="msIF1JABwLvq9Jov6W6y-2" value="&lt;font style=&quot;font-size: 14px&quot;&gt;Header&lt;/font&gt;" style="ellipse;whiteSpace=wrap;html=1;fillColor=#b1ddf0;strokeColor=#10739e;" vertex="1" parent="1">
          <mxGeometry x="130" y="190" width="560" height="50" as="geometry" />
        </mxCell>
        <mxCell id="msIF1JABwLvq9Jov6W6y-4" value="&lt;font style=&quot;font-size: 14px&quot;&gt;Footer&lt;/font&gt;" style="ellipse;whiteSpace=wrap;html=1;fillColor=#b1ddf0;strokeColor=#10739e;" vertex="1" parent="1">
          <mxGeometry x="130" y="650" width="560" height="50" as="geometry" />
        </mxCell>
        <mxCell id="msIF1JABwLvq9Jov6W6y-5" value="Movie" style="ellipse;whiteSpace=wrap;html=1;aspect=fixed;fillColor=#d5e8d4;strokeColor=#82b366;" vertex="1" parent="1">
          <mxGeometry x="60" y="270" width="130" height="130" as="geometry" />
        </mxCell>
        <mxCell id="msIF1JABwLvq9Jov6W6y-6" value="Streaming Sites" style="ellipse;whiteSpace=wrap;html=1;aspect=fixed;fillColor=#d5e8d4;strokeColor=#82b366;" vertex="1" parent="1">
          <mxGeometry x="250" y="500" width="120" height="120" as="geometry" />
        </mxCell>
        <mxCell id="msIF1JABwLvq9Jov6W6y-9" value="Account" style="ellipse;whiteSpace=wrap;html=1;aspect=fixed;fillColor=#d5e8d4;strokeColor=#82b366;" vertex="1" parent="1">
          <mxGeometry x="630" y="270" width="130" height="130" as="geometry" />
        </mxCell>
        <mxCell id="msIF1JABwLvq9Jov6W6y-10" value="Movie Title" style="ellipse;whiteSpace=wrap;html=1;fillColor=#e1d5e7;strokeColor=#9673a6;" vertex="1" parent="1">
          <mxGeometry x="65" y="400" width="120" height="45" as="geometry" />
        </mxCell>
        <mxCell id="msIF1JABwLvq9Jov6W6y-12" value="Movie Genre" style="ellipse;whiteSpace=wrap;html=1;fillColor=#e1d5e7;strokeColor=#9673a6;" vertex="1" parent="1">
          <mxGeometry x="65" y="445" width="120" height="45" as="geometry" />
        </mxCell>
        <mxCell id="msIF1JABwLvq9Jov6W6y-13" value="Movie Runtime" style="ellipse;whiteSpace=wrap;html=1;fillColor=#e1d5e7;strokeColor=#9673a6;" vertex="1" parent="1">
          <mxGeometry x="65" y="492.5" width="120" height="45" as="geometry" />
        </mxCell>
        <mxCell id="msIF1JABwLvq9Jov6W6y-14" value="Main Actors" style="ellipse;whiteSpace=wrap;html=1;fillColor=#e1d5e7;strokeColor=#9673a6;" vertex="1" parent="1">
          <mxGeometry x="65" y="537.5" width="120" height="45" as="geometry" />
        </mxCell>
        <mxCell id="msIF1JABwLvq9Jov6W6y-15" value="Movie Rating" style="ellipse;whiteSpace=wrap;html=1;fillColor=#e1d5e7;strokeColor=#9673a6;" vertex="1" parent="1">
          <mxGeometry x="65" y="582.5" width="120" height="45" as="geometry" />
        </mxCell>
        <mxCell id="msIF1JABwLvq9Jov6W6y-16" value="Username" style="ellipse;whiteSpace=wrap;html=1;fillColor=#e1d5e7;strokeColor=#9673a6;" vertex="1" parent="1">
          <mxGeometry x="635" y="400" width="120" height="45" as="geometry" />
        </mxCell>
        <mxCell id="msIF1JABwLvq9Jov6W6y-17" value="User Preferred Genres" style="ellipse;whiteSpace=wrap;html=1;fillColor=#e1d5e7;strokeColor=#9673a6;" vertex="1" parent="1">
          <mxGeometry x="635" y="445" width="120" height="45" as="geometry" />
        </mxCell>
        <mxCell id="msIF1JABwLvq9Jov6W6y-18" value="Users&#39; Ratings" style="ellipse;whiteSpace=wrap;html=1;fillColor=#e1d5e7;strokeColor=#9673a6;" vertex="1" parent="1">
          <mxGeometry x="635" y="490" width="120" height="45" as="geometry" />
        </mxCell>
        <mxCell id="msIF1JABwLvq9Jov6W6y-19" value="About Page" style="ellipse;whiteSpace=wrap;html=1;aspect=fixed;fillColor=#d5e8d4;strokeColor=#82b366;" vertex="1" parent="1">
          <mxGeometry x="450" y="500" width="120" height="120" as="geometry" />
        </mxCell>
      </root>
    </mxGraphModel>
  </diagram>
</mxfile>
